HIERARCHY
ROOT Hips
{
   OFFSET 0.00000 0.00000 0.00000
   CHANNELS 6 Xposition Yposition Zposition Zrotation Xrotation Yrotation
   JOINT RightUpLeg
   {
      OFFSET -8.051219 -7.800363 0.091487
      CHANNELS 3 Zrotation Xrotation Yrotation
      JOINT RightLeg
      {
         OFFSET 0.000000 -39.980428 1.235430
         CHANNELS 3 Zrotation Xrotation Yrotation
         JOINT RightFoot
         {
            OFFSET 0.228194 -37.883157 -1.314531
            CHANNELS 3 Zrotation Xrotation Yrotation
            JOINT RightToes
            {
               OFFSET 0.036000 -3.973581 7.649189
               CHANNELS 3 Zrotation Xrotation Yrotation
               End Site
               {
                  OFFSET -0.072000 -0.123703 8.801811
               }
            }
         }
      }
   }
   JOINT Spine
   {
      OFFSET 0.000000 10.701450 0.000000
      CHANNELS 3 Zrotation Xrotation Yrotation
      JOINT Spine1
      {
         OFFSET 0.000000 23.091659 0.114897
         CHANNELS 3 Zrotation Xrotation Yrotation
         JOINT HEad
         {
            OFFSET 0.000000 7.860744 0.010207
            CHANNELS 3 Zrotation Xrotation Yrotation
            End Site
            {
               OFFSET -0.261000 11.496780 2.262555
            }
         }
         JOINT LeftShoulder1
         {
            OFFSET 8.091000 -0.326027 -0.198000
            CHANNELS 3 Zrotation Xrotation Yrotation
            JOINT LeftArm
            {
               OFFSET 9.254430 -0.003042 0.289911
               CHANNELS 3 Zrotation Xrotation Yrotation
               JOINT LeftForeArm
               {
                  OFFSET 29.490208 0.089230 -1.281906
                  CHANNELS 3 Zrotation Xrotation Yrotation
                  JOINT LeftHand
                  {
                     OFFSET 24.807870 0.076826 0.919944
                     CHANNELS 3 Zrotation Xrotation Yrotation
                     End Site
                     {
                        OFFSET 15.069871 -0.540000 1.352619
                     }
                  }
               }
            }
         }
         JOINT RightShoulder
         {
            OFFSET -8.091000 -0.326027 -0.198000
            CHANNELS 3 Zrotation Xrotation Yrotation
            JOINT RightArm
            {
               OFFSET -9.254430 -0.003042 0.289911
               CHANNELS 3 Zrotation Xrotation Yrotation
               JOINT RightForeArm
               {
                  OFFSET -29.607386 0.089230 -1.281906
                  CHANNELS 3 Zrotation Xrotation Yrotation
                  JOINT RightHand
                  {
                     OFFSET -24.742889 0.076826 0.919944
                     CHANNELS 3 Zrotation Xrotation Yrotation
                     End Site
                     {
                        OFFSET -14.968080 -0.540000 1.352619
                     }
                  }
               }
            }
         }
      }
   }
   JOINT LeftUpLeg
   {
      OFFSET 8.051219 -7.800363 0.091487
      CHANNELS 3 Zrotation Xrotation Yrotation
      JOINT LeftLeg
      {
         OFFSET 0.000000 -39.980428 1.235430
         CHANNELS 3 Zrotation Xrotation Yrotation
         JOINT LeftFoot
         {
            OFFSET -0.228194 -37.883157 -1.314531
            CHANNELS 3 Zrotation Xrotation Yrotation
            JOINT LeftToes
            {
               OFFSET -0.036000 -3.973581 7.649189
               CHANNELS 3 Zrotation Xrotation Yrotation
               End Site
               {
                  OFFSET 0.072000 -0.042703 8.801811
               }
            }
         }
      }
   }
}
MOTION
Frames: 21
Frame Time: 0.016667
-947.94 101.093 372.696 4.00252 -8.62062 31.9139 -19.5306 2.55677 2.55309 36.7764 24.3532 -29.495 -1.66648 -4.11042 -0.787868 0.0462048 0.000533403 0.662642 -4.62622 23.5624 -3.14456 2.25087e-006 0.00820051 -0.0108384 -8.09905 3.84152 17.621 7.95139e-016 0 6.36111e-015 168.964 -34.703 -151.996 -131.667 46.7617 16.5763 20.4243 26.0242 -12.5567 19.5939 4.89349 0.525161 132.743 -19.826 82.5217 91.049 61.0426 22.2891 22.7212 23.6086 0.162858 26.026 -15.8702 -6.69827 -32.8487 29.3498 65.1307 -9.34902 -3.04099 -0.525782 1.24393e-009 1.55998e-007 -4.85536e-009 
-948.546 100.97 372.177 4.43734 -9.23409 31.974 -20.8409 3.02135 3.7823 39.5011 22.5114 -32.9712 -2.64776 -3.91706 -0.904105 0.0462048 0.000533403 0.662642 -5.29814 25.2276 -4.30602 2.25087e-006 0.00820051 -0.0108384 -3.13782 0.673422 13.7521 -0 -1.59028e-015 -0 169.321 -33.8659 -152.394 -131.442 47.2906 17.2423 21.2162 25.4629 -13.0591 20.1686 4.78006 1.64443 133.548 -19.3496 81.2011 90.0106 61.8092 23.0546 24.1357 24.097 -0.134649 27.3709 -15.3795 -10.0408 -37.1638 25.0127 74.3595 -6.06216 -2.54916 -0.275944 1.24393e-009 1.55998e-007 -4.85536e-009 
-949.119 100.593 371.618 4.85171 -9.78678 32.0261 -21.8044 2.31672 5.10614 41.9496 22.146 -36.7146 -3.10346 -3.59163 -0.953399 0.0462048 0.000533403 0.662642 -5.68269 26.2135 -5.19941 2.25087e-006 0.00820051 -0.0108384 0.98418 -1.74691 10.4026 -0 0 3.18055e-015 169.31 -33.8523 -152.855 -131.146 47.7933 17.6865 20.86 26.2538 -13.6393 20.415 5.08097 2.42237 133.814 -18.9523 80.2686 89.5402 62.3641 23.5608 24.5394 24.6397 -0.479417 28.8227 -15.2074 -13.0022 -40.3186 20.9911 81.6712 -3.16808 -2.31949 -0.304125 1.24393e-009 1.55998e-007 -4.85536e-009 
-949.592 100.049 371.128 5.2363 -10.2586 32.092 -22.7118 1.52368 6.29865 44.293 22.3748 -40.0315 -3.22778 -3.34483 -0.931037 0.0462048 0.000533403 0.662642 -5.81278 26.6172 -5.85808 2.25087e-006 0.00820051 -0.0108384 4.30999 -3.5136 7.3811 -2.38542e-015 -3.18055e-015 -0 169.038 -34.5172 -153.202 -130.698 48.3291 17.9228 21.4473 25.7064 -14.0273 20.3673 5.67466 2.86526 133.76 -18.6215 79.6845 89.2832 62.7 24.0144 24.5996 25.1781 -0.77136 30.2137 -15.1611 -15.6419 -42.7398 17.3937 87.3565 -0.682429 -2.30837 -0.428872 1.24393e-009 1.55998e-007 -4.85536e-009 
-950.016 99.4021 370.748 5.57971 -10.641 32.1903 -23.4821 0.586462 7.31334 46.5289 23.0051 -43.0085 -3.14285 -3.14912 -0.877239 0.0462048 0.000533403 0.662642 -5.72736 26.5365 -6.3042 2.25087e-006 0.00820051 -0.0108384 6.9016 -4.7301 4.57326 7.95139e-016 0 6.36111e-015 168.628 -35.7502 -153.301 -130.079 48.9532 17.9861 21.3243 25.9546 -14.4636 20.0893 6.46222 2.99595 133.522 -18.3562 79.3832 89.0869 62.8552 24.4876 24.3412 25.701 -1.0524 31.2922 -15.2556 -17.9229 -43.9038 14.4037 89.6057 1.54307 -2.71577 -0.558638 1.24393e-009 1.55998e-007 -4.85536e-009 
-950.373 98.6706 370.512 5.87379 -10.9329 32.3395 -24.115 -0.522054 8.13576 48.7247 23.9238 -45.7609 -2.91604 -3.02807 -0.794271 0.0462048 0.000533403 0.662642 -5.47264 26.0594 -6.55236 2.25087e-006 0.00820051 -0.0108384 8.84022 -5.48378 1.91498 3.18055e-015 0 -0 168.223 -37.4763 -153.061 -129.185 49.7169 17.8186 21.7388 25.437 -14.7718 19.6712 7.37184 2.8371 133.173 -18.164 79.291 88.9133 62.8812 24.9806 24.0538 26.1813 -1.2629 32.0014 -15.4282 -19.8934 -44.5283 12.2435 89.1401 3.3913 -3.49768 -0.656917 1.24393e-009 1.55998e-007 -4.85536e-009 
-950.605 97.8487 370.419 6.11514 -11.1423 32.5339 -24.6828 -1.78582 8.79469 50.9729 25.0602 -48.377 -2.55171 -3.00806 -0.666157 0.0462048 0.000533403 0.662642 -5.10437 25.2662 -6.58895 2.25087e-006 0.00820051 -0.0108384 10.2179 -5.84456 -0.625402 -1.59028e-015 7.95139e-016 -0 167.959 -39.6418 -152.413 -127.97 50.6569 17.3907 21.6896 25.4089 -15.1101 19.2095 8.34977 2.40897 132.744 -18.0549 79.3407 88.7622 62.8242 25.4735 23.6747 26.6282 -1.42602 32.5507 -15.5717 -21.608 -45.6388 10.6288 88.6044 4.89085 -4.314 -0.748804 1.24393e-009 1.55998e-007 -4.85536e-009 
-950.723 96.9683 370.451 6.31011 -11.2795 32.7631 -25.1982 -3.15856 9.30585 53.2415 26.3554 -50.8634 -2.04931 -3.06528 -0.502251 0.0462048 0.000533403 0.662642 -4.67787 24.2304 -6.39974 2.25087e-006 0.00820051 -0.0108384 11.1291 -5.86728 -3.05803 3.97569e-016 1.59028e-015 -3.18055e-015 167.949 -42.1922 -151.328 -126.368 51.7801 16.6412 21.9197 24.9402 -15.3554 18.7851 9.35602 1.73059 132.255 -18.039 79.4759 88.6484 62.7255 25.9438 23.331 27.0439 -1.52281 33.0179 -15.762 -23.0304 -47.0174 9.45658 88.0026 6.18737 -5.11564 -0.840643 1.24393e-009 1.55998e-007 -4.85536e-009 
-950.74 96.0536 370.572 6.47479 -11.36 33.0187 -25.6858 -4.58863 9.69357 55.4978 27.7811 -53.2236 -1.39964 -3.1803 -0.308186 0.0462048 0.000533403 0.662642 -4.32669 23.3896 -6.17943 2.25087e-006 0.00820051 -0.0108384 11.2859 -5.04818 -3.93251 -4.41391e-032 -7.95139e-016 -3.18055e-015 173.802 -46.461 -145.71 -118.449 55.5463 11.1311 21.8358 24.7779 -15.5667 18.4874 10.102 1.18334 131.755 -18.1257 79.6844 88.5589 62.6034 26.3857 22.9507 27.4389 -1.57337 33.4602 -16.0575 -24.1443 -48.5531 8.65103 87.3902 7.38473 -5.92235 -0.930797 1.24393e-009 1.55998e-007 -4.85536e-009 
-950.654 95.1174 370.742 6.6311 -11.3984 33.2954 -26.1821 -6.03608 9.98749 57.7355 29.3158 -55.4822 -0.601812 -3.34697 -0.0803639 0.0462048 0.000533403 0.662642 -4.06314 22.7271 -5.92721 2.25087e-006 0.00820051 -0.0108384 10.7788 -3.50944 -3.41525 -2.78299e-015 1.59028e-015 6.36111e-015 177.852 -49.8543 -141.521 -111.957 57.9605 5.96411 21.8673 24.3596 -15.6808 18.332 10.6292 0.714486 131.231 -18.3074 79.9056 88.5228 62.496 26.7947 22.5974 27.8004 -1.58289 33.7149 -16.3763 -23.8597 -49.9143 9.00348 86.1142 8.56389 -6.82582 -1.04322 1.24393e-009 1.55998e-007 -4.85536e-009 
-950.492 94.1739 370.927 6.7976 -11.4045 33.5927 -26.6959 -7.47855 10.2047 59.9466 30.9224 -57.6732 0.311871 -3.55706 0.18163 0.0462048 0.000533403 0.662642 -3.89288 22.2275 -5.64988 2.25087e-006 0.00820051 -0.0108384 9.61147 -1.42232 -1.6332 3.97569e-016 2.38542e-015 3.18055e-015 -179.445 -52.7269 -138.465 -106.652 59.5532 1.38958 21.6101 24.1262 -15.6981 18.264 10.9798 0.32767 130.743 -18.5786 80.1301 88.5425 62.4191 27.1672 22.2327 28.1145 -1.57535 33.8487 -16.7936 -22.2983 -51.1094 10.4505 84.4143 9.76592 -7.80366 -1.19674 1.24392e-009 1.55998e-007 -4.85536e-009 
-950.295 93.2392 371.11 6.98189 -11.3845 33.9127 -27.2062 -8.89939 10.3516 62.1083 32.548 -59.8206 1.28927 -3.79678 0.470848 0.0462048 0.000533403 0.662642 -3.81606 21.8771 -5.35784 2.25087e-006 0.00820051 -0.0108384 8.52545 0.374128 0.0491327 -1.76556e-031 -1.59028e-015 -6.36111e-015 -177.714 -55.2634 -136.261 -102.295 60.659 -2.56228 21.4039 23.7372 -15.6957 18.2611 11.1879 -0.00111324 130.303 -18.9121 80.3281 88.6228 62.3823 27.5073 21.9088 28.3698 -1.5705 34.0734 -17.3898 -20.6836 -52.3778 12.0089 83.1027 10.9958 -8.74484 -1.36015 1.24393e-009 1.55998e-007 -4.85536e-009 
-950.087 92.3159 371.28 7.18272 -11.3421 34.2557 -27.7024 -10.2897 10.4359 64.2265 34.1431 -61.9588 2.28383 -4.06242 0.788024 0.0462048 0.000533403 0.662642 -3.82719 21.6586 -5.06105 2.25087e-006 0.00820051 -0.0108384 7.52161 1.89041 1.61803 -2.78299e-015 3.97569e-015 -0 -176.683 -57.573 -134.697 -98.6959 61.4824 -5.94474 21.046 23.4634 -15.6527 18.3042 11.2795 -0.289859 129.91 -19.2783 80.4734 88.7461 62.3888 27.839 21.6231 28.5726 -1.59168 34.3661 -18.1347 -19.0366 -53.701 13.638 82.1694 12.2658 -9.62587 -1.52224 1.24393e-009 1.55998e-007 -4.85536e-009 
-949.883 91.4095 371.437 7.39737 -11.2779 34.6203 -28.1775 -11.6394 10.4664 66.3106 35.6671 -64.1149 3.25866 -4.35706 1.13685 0.0462048 0.000533403 0.662642 -3.92136 21.5532 -4.7667 2.25087e-006 0.00820051 -0.0108384 6.6019 3.14013 3.06262 -3.97569e-016 3.18055e-015 -3.18055e-015 -176.186 -59.7234 -133.65 -95.7202 62.1436 -8.83295 20.7601 23.1102 -15.6112 18.3887 11.2727 -0.551955 129.541 -19.6463 80.5449 88.8698 62.4394 28.2023 21.4114 28.7355 -1.65672 34.7182 -18.995 -17.3842 -55.1357 15.333 81.6027 13.5234 -10.3994 -1.6843 1.24393e-009 1.55998e-007 -4.85536e-009 
-949.693 90.5274 371.582 7.61898 -11.1944 35.0012 -28.6193 -12.9374 10.4509 68.3527 37.09 -66.2904 4.18708 -4.67606 1.51567 0.0462048 0.000533403 0.662642 -4.08898 21.5424 -4.47838 2.25087e-006 0.00820051 -0.0108384 5.76911 4.14051 4.37436 3.97569e-016 -2.38542e-015 -0 -176.139 -61.7571 -133.065 -93.2978 62.7141 -11.2684 20.4257 22.8285 -15.5476 18.5171 11.1804 -0.794553 129.17 -19.9887 80.5327 88.9464 62.5333 28.6293 21.253 28.8698 -1.7725 35.1103 -19.9379 -15.7453 -56.6432 17.0534 81.3633 14.7654 -11.0662 -1.83559 1.24393e-009 1.55998e-007 -4.85536e-009 
-949.52 89.6688 371.716 7.83802 -11.0969 35.3901 -29.0212 -14.1726 10.399 70.3459 38.3976 -68.4729 5.05623 -5.01504 1.92172 0.0462048 0.000533403 0.662642 -4.316 21.609 -4.19704 2.25087e-006 0.00820051 -0.0108384 5.02533 4.91206 5.54742 -1.59028e-015 -7.95139e-016 -6.36111e-015 -176.514 -63.7 -132.93 -91.3773 63.2315 -13.283 20.1713 22.4921 -15.4914 18.6861 11.0151 -1.01886 128.784 -20.2843 80.4413 88.9484 62.6672 29.1209 21.1346 28.9837 -1.92819 35.5283 -20.9356 -14.1391 -58.1929 18.7637 81.4131 15.9925 -11.6301 -1.96553 1.24393e-009 1.55998e-007 -4.85536e-009 
-949.367 88.8332 371.84 8.07043 -10.997 35.7789 -29.4227 -15.3513 10.3604 72.4664 39.7322 -70.7391 5.96578 -5.30776 2.33045 0.0462048 0.000533403 0.662642 -4.57978 21.7049 -3.91072 2.25087e-006 0.00820051 -0.0108384 4.30707 5.62434 6.68459 1.98785e-015 7.95139e-016 3.18055e-015 -177.012 -65.6976 -132.964 -89.5968 63.7514 -15.2257 19.921 22.1629 -15.442 18.9283 10.838 -1.26463 128.327 -20.584 80.2882 88.9727 62.8482 29.6131 21.0119 29.0937 -2.08832 35.97 -21.9676 -12.531 -59.8498 20.4786 81.6032 17.2911 -12.1009 -2.04117 1.24393e-009 1.55998e-007 -4.85536e-009 
-949.234 88.0312 371.954 8.30529 -10.8927 36.1631 -29.8187 -16.4738 10.3312 74.6668 41.012 -73.0553 6.88009 -5.57069 2.74473 0.0462048 0.000533403 0.662642 -4.87196 21.8264 -3.62008 2.25087e-006 0.00820051 -0.0108384 3.62197 6.25802 7.78643 -3.97569e-016 -2.38542e-015 -6.36111e-015 -177.615 -67.6845 -133.171 -87.9295 64.2573 -17.0821 19.6759 21.8408 -15.3994 19.2095 10.631 -1.49193 127.846 -20.8797 80.1041 88.9854 63.0593 30.1002 20.8782 29.198 -2.2494 36.43 -23.0207 -10.9213 -61.5616 22.1746 81.904 18.666 -12.4784 -2.04886 1.24393e-009 1.55998e-007 -4.85536e-009 
-949.113 87.2657 372.064 8.53542 -10.7823 36.5384 -30.2021 -17.5388 10.3078 76.8842 42.1897 -75.3822 7.77516 -5.81522 3.16803 0.0462048 0.000533403 0.662642 -5.18671 21.97 -3.32614 6.25233e-005 0.00832049 -0.0108384 2.96905 6.81737 8.84752 -2.78299e-015 -7.95139e-016 -0 -178.318 -69.6324 -133.555 -86.3605 64.7375 -18.8441 19.4284 21.5299 -15.363 19.5112 10.3977 -1.69677 127.36 -21.1582 79.8996 88.9686 63.2919 30.5735 20.7233 29.3009 -2.40071 36.9091 -24.0894 -9.30579 -63.2735 23.8116 82.2809 20.1473 -12.7644 -1.97344 1.24392e-009 1.55998e-007 -4.85536e-009 
-949.021 87.3811 372.154 8.80577 -10.7415 36.9104 -29.9892 -18.5158 10.1353 78.1737 44.0076 -76.8903 9.02781 -6.03721 3.72777 0.0462048 0.000533403 0.662642 -5.0903 21.6788 -3.24693 0.0280895 -0.0220496 -0.0108384 2.36339 8.07356 9.82147 -7.95139e-016 7.95139e-016 -0 -178.52 -71.2923 -134.095 -86.4255 65.7597 -19.8488 16.6965 24.5392 -18.2088 22.4443 7.94486 -1.1856 124.063 -24.6337 79.7884 89.2316 63.71 31.2498 15.3801 33.2438 -0.817811 37.2652 -25.2555 -7.54111 -64.9877 26.725 81.5193 18.0514 -13.0578 -2.61024 1.24393e-009 1.55998e-007 -4.85536e-009 
-949.059 87.4111 372.064 9.09996 -10.7994 37.2664 -29.2731 -19.4951 9.77181 78.7019 46.4589 -77.7316 10.5622 -6.28357 4.47203 0.0462048 0.000533403 0.662642 -4.54944 21.001 -3.39463 0.03103 -0.0228597 -0.0108384 1.80539 10.0171 10.7527 7.95139e-016 7.95139e-016 9.54166e-015 -178.223 -72.6627 -134.647 -88.1451 67.3142 -19.9903 12.8216 29.0211 -21.1968 27.247 4.06289 -0.220794 118.33 -30.0951 79.4323 89.6528 64.2932 32.1106 7.08917 38.2637 1.58512 37.2122 -26.7003 -5.53068 -66.4713 30.8331 79.7894 14.7289 -13.2035 -3.39031 1.24393e-009 1.55998e-007 -4.85536e-009 
